<svg xmlns="http://www.w3.org/2000/svg" width="340" height="560" viewBox="0 0 340 560" role="img" aria-label="Pro Team plan">
<title>ImageGlass Pro Team</title>
<g font-family="-apple-system, BlinkMacSystemFont, 'Segoe UI', Roboto, Helvetica, Arial, sans-serif">
<rect x="0.5" y="0.5" width="339" height="559" rx="16" fill="#ffffff" stroke="#d1d9e0" stroke-width="1"/>
<rect x="22" y="30" width="44" height="44" rx="13" fill="#e4f1fb"/>
<circle cx="38.5" cy="45.5" r="5.8" fill="#0a84d8"/><path d="M29 62c0-5.2 4.3-9.5 9.5-9.5S48 56.8 48 62z" fill="#0a84d8"/><circle cx="51.5" cy="46.5" r="4.6" fill="#0a84d8" opacity="0.6"/><path d="M44.5 62c0-4.1 3.1-7.5 7-7.5s7 3.4 7 7.5z" fill="#0a84d8" opacity="0.6"/>
<text x="78" y="60" font-size="22" font-weight="700" fill="#1f2328">Pro Team</text>
<text x="24" y="108" font-size="14.5" fill="#59636e">Small studios and teams sharing Pro</text>
<text x="24" y="128" font-size="14.5" fill="#59636e">across a few named users or managed</text>
<text x="24" y="148" font-size="14.5" fill="#59636e">devices for commercial use.</text>
<text x="24" y="232" font-size="40" font-weight="700" fill="#0a84d8">$69</text>
<text x="99" y="232" font-size="14.5" fill="#59636e">one-time</text>
<line x1="24" y1="314" x2="316" y2="314" stroke="#d1d9e0"/>
<text x="24" y="344" font-size="14.5" fill="#59636e">Users</text>
<text x="113" y="344" font-size="14.5" font-weight="600" fill="#1f2328">Up to 3 users or devices</text>
<text x="24" y="373" font-size="14.5" fill="#59636e">Payment</text>
<text x="113" y="373" font-size="14.5" font-weight="600" fill="#1f2328">One-time</text>
<text x="24" y="402" font-size="14.5" fill="#59636e">License</text>
<text x="113" y="402" font-size="14.5" font-weight="600" fill="#1f2328">Commercial Pro</text>
<text x="24" y="431" font-size="14.5" fill="#59636e">Updates</text>
<text x="113" y="431" font-size="14.5" font-weight="600" fill="#1f2328">Pro v10.x</text>
<text x="24" y="460" font-size="14.5" fill="#59636e">Support</text>
<text x="113" y="460" font-size="14.5" font-weight="600" fill="#1f2328">Standard purchase help</text>
<rect x="24" y="492" width="292" height="46" rx="11" fill="#0a84d8"/>
<text x="170" y="521" font-size="15.5" font-weight="600" fill="#ffffff" text-anchor="middle">Get Pro Team</text>
</g>
</svg>
